<svg xmlns="http://www.w3.org/2000/svg" width="20" height="20" viewBox="0 0 20 20" fill="none">
  <g clip-path="url(#clip0_21278_5173)">
    <path fill-rule="evenodd" clip-rule="evenodd" d="M3.33268 9.99984C3.3328 8.71688 3.70311 7.46121 4.39917 6.38349C5.09523 5.30577 6.08748 4.45179 7.25686 3.92402C8.42623 3.39624 9.72305 3.21709 10.9917 3.40806C12.2604 3.59904 13.447 4.15202 14.4092 5.00066C15.3713 5.84931 16.0682 6.95755 16.4162 8.19243C16.7641 9.4273 16.7483 10.7363 16.3708 11.9625C15.9932 13.1886 15.2698 14.2798 14.2875 15.105C13.3052 15.9302 12.1056 16.4545 10.8327 16.6148V11.6665H12.4993C12.7204 11.6665 12.9323 11.5787 13.0886 11.4224C13.2449 11.2661 13.3327 11.0542 13.3327 10.8332C13.3327 10.6122 13.2449 10.4002 13.0886 10.2439C12.9323 10.0876 12.7204 9.99984 12.4993 9.99984H10.8327V8.33317C10.8327 8.11216 10.9205 7.9002 11.0768 7.74392C11.233 7.58763 11.445 7.49984 11.666 7.49984H12.0827C12.3037 7.49984 12.5157 7.41204 12.6719 7.25576C12.8282 7.09948 12.916 6.88752 12.916 6.6665C12.916 6.44549 12.8282 6.23353 12.6719 6.07725C12.5157 5.92097 12.3037 5.83317 12.0827 5.83317H11.666C11.003 5.83317 10.3671 6.09656 9.89825 6.5654C9.42941 7.03424 9.16602 7.67013 9.16602 8.33317V9.99984H7.49935C7.27834 9.99984 7.06637 10.0876 6.91009 10.2439C6.75381 10.4002 6.66602 10.6122 6.66602 10.8332C6.66602 11.0542 6.75381 11.2661 6.91009 11.4224C7.06637 11.5787 7.27834 11.6665 7.49935 11.6665H9.16602V16.6148C7.55493 16.4117 6.07337 15.6276 4.99935 14.4096C3.92534 13.1917 3.33271 11.6237 3.33268 9.99984ZM9.99935 18.3332C14.6018 18.3332 18.3327 14.6023 18.3327 9.99984C18.3327 5.39734 14.6018 1.6665 9.99935 1.6665C5.39685 1.6665 1.66602 5.39734 1.66602 9.99984C1.66602 14.6023 5.39685 18.3332 9.99935 18.3332Z" fill="url(#paint0_linear_21278_5173)"/>
  </g>
  <defs>
    <linearGradient id="paint0_linear_21278_5173" x1="10.0787" y1="-8.12516" x2="9.53204" y2="18.3235" gradientUnits="userSpaceOnUse">
      <stop stop-color="#4F9D4E"/>
      <stop offset="1" stop-color="#4F9D4E"/>
    </linearGradient>
    <clipPath id="clip0_21278_5173">
      <rect width="20" height="20" fill="white"/>
    </clipPath>
  </defs>
</svg>