<svg xmlns="http://www.w3.org/2000/svg" width="20" height="20" viewBox="0 0 20 20" fill="none">
  <path d="M6.49935 1.6665H13.4993C16.166 1.6665 18.3327 3.83317 18.3327 6.49984V13.4998C18.3327 14.7817 17.8235 16.0111 16.917 16.9175C16.0106 17.8239 14.7812 18.3332 13.4993 18.3332H6.49935C3.83268 18.3332 1.66602 16.1665 1.66602 13.4998V6.49984C1.66602 5.21796 2.17524 3.98858 3.08167 3.08215C3.98809 2.17573 5.21747 1.6665 6.49935 1.6665ZM6.33268 3.33317C5.53703 3.33317 4.77397 3.64924 4.21136 4.21185C3.64875 4.77446 3.33268 5.53752 3.33268 6.33317V13.6665C3.33268 15.3248 4.67435 16.6665 6.33268 16.6665H13.666C14.4617 16.6665 15.2247 16.3504 15.7873 15.7878C16.3499 15.2252 16.666 14.4622 16.666 13.6665V6.33317C16.666 4.67484 15.3243 3.33317 13.666 3.33317H6.33268ZM14.3743 4.58317C14.6506 4.58317 14.9156 4.69292 15.1109 4.88827C15.3063 5.08362 15.416 5.34857 15.416 5.62484C15.416 5.9011 15.3063 6.16606 15.1109 6.36141C14.9156 6.55676 14.6506 6.6665 14.3743 6.6665C14.0981 6.6665 13.8331 6.55676 13.6378 6.36141C13.4424 6.16606 13.3327 5.9011 13.3327 5.62484C13.3327 5.34857 13.4424 5.08362 13.6378 4.88827C13.8331 4.69292 14.0981 4.58317 14.3743 4.58317ZM9.99935 5.83317C11.1044 5.83317 12.1642 6.27216 12.9456 7.05356C13.727 7.83496 14.166 8.89477 14.166 9.99984C14.166 11.1049 13.727 12.1647 12.9456 12.9461C12.1642 13.7275 11.1044 14.1665 9.99935 14.1665C8.89428 14.1665 7.83447 13.7275 7.05307 12.9461C6.27167 12.1647 5.83268 11.1049 5.83268 9.99984C5.83268 8.89477 6.27167 7.83496 7.05307 7.05356C7.83447 6.27216 8.89428 5.83317 9.99935 5.83317ZM9.99935 7.49984C9.33631 7.49984 8.70042 7.76323 8.23158 8.23207C7.76274 8.70091 7.49935 9.3368 7.49935 9.99984C7.49935 10.6629 7.76274 11.2988 8.23158 11.7676C8.70042 12.2364 9.33631 12.4998 9.99935 12.4998C10.6624 12.4998 11.2983 12.2364 11.7671 11.7676C12.236 11.2988 12.4993 10.6629 12.4993 9.99984C12.4993 9.3368 12.236 8.70091 11.7671 8.23207C11.2983 7.76323 10.6624 7.49984 9.99935 7.49984Z" fill="url(#paint0_linear_21378_2899)"/>
  <defs>
    <linearGradient id="paint0_linear_21378_2899" x1="10.0787" y1="-8.12516" x2="9.53204" y2="18.3235" gradientUnits="userSpaceOnUse">
      <stop stop-color="#EE3A31"/>
      <stop offset="1" stop-color="#F47922"/>
    </linearGradient>
  </defs>
</svg>