<svg xmlns="http://www.w3.org/2000/svg" width="20" height="20" viewBox="0 0 20 20" fill="none">
  <g clip-path="url(#clip0_21378_3777)">
    <path fill-rule="evenodd" clip-rule="evenodd" d="M14.8483 5.82417C14.5541 5.40083 13.7674 4.80583 12.4933 5.0625C11.7499 5.21167 11.3058 5.57917 11.0233 6.06417C10.7224 6.58083 10.5766 7.28333 10.5766 8.10083C10.5766 8.32185 10.4888 8.53381 10.3325 8.69009C10.1762 8.84637 9.96428 8.93417 9.74327 8.93417C7.7716 8.93417 5.89494 8.34833 4.31577 6.76417C4.19654 7.40692 4.14959 8.06098 4.17577 8.71417C4.21994 9.61917 4.43577 10.5267 4.94827 11.3042C5.45244 12.0683 6.2816 12.7683 7.66827 13.2083C7.80415 13.2514 7.92669 13.3287 8.0242 13.4327C8.1217 13.5366 8.1909 13.6639 8.22518 13.8023C8.25946 13.9406 8.25767 14.0855 8.21998 14.223C8.1823 14.3604 8.10998 14.486 8.00994 14.5875C7.56576 15.0431 7.06237 15.4369 6.51327 15.7583C7.3966 15.85 8.24827 15.8567 9.03827 15.785C10.6383 15.64 11.9124 15.1825 12.7091 14.535C14.3866 13.175 15.2841 11.1467 15.1174 7.74833C15.0891 7.19 15.6283 6.5875 15.8883 6.13C15.4958 6.20334 15.1024 6.19 14.8483 5.82417ZM3.8291 4.15334C3.97998 4.1358 4.13278 4.15984 4.27099 4.22285C4.4092 4.28585 4.52755 4.38544 4.61327 4.51084C5.84327 6.31 7.31994 7.05833 8.9591 7.22833C9.0391 6.5275 9.22827 5.835 9.5841 5.225C10.1058 4.33 10.9541 3.67167 12.1658 3.42833C13.8408 3.09167 15.1158 3.69833 15.8549 4.44083L17.3483 4.16167C17.5045 4.13239 17.6659 4.14842 17.8134 4.20787C17.9608 4.26733 18.0882 4.36772 18.1804 4.49721C18.2727 4.62669 18.326 4.77987 18.334 4.93865C18.342 5.09743 18.3045 5.2552 18.2258 5.39334L16.7924 7.91167C16.9233 11.5458 15.9133 14.0825 13.7599 15.83C12.6183 16.7567 10.9833 17.2825 9.1891 17.445C7.38077 17.6083 5.3366 17.4108 3.30494 16.8175C3.13135 16.7669 2.97894 16.6611 2.87071 16.5163C2.76248 16.3714 2.7043 16.1953 2.70496 16.0145C2.70562 15.8336 2.76508 15.6579 2.87436 15.5139C2.98364 15.3698 3.13681 15.2652 3.31077 15.2158C4.33244 14.925 5.11077 14.6742 5.81327 14.235C4.8141 13.705 4.07827 13.0117 3.55744 12.2217C2.8341 11.1233 2.56577 9.89833 2.51244 8.79417C2.4591 7.69 2.61827 6.66667 2.7866 5.92917C2.88244 5.50833 2.9941 5.08667 3.14827 4.68333C3.20265 4.54116 3.29493 4.4166 3.4151 4.32316C3.53528 4.22973 3.67791 4.17099 3.8291 4.15334Z" fill="url(#paint0_linear_21378_3777)"/>
  </g>
  <defs>
    <linearGradient id="paint0_linear_21378_3777" x1="10.4939" y1="-4.99013" x2="10.0781" y2="17.4938" gradientUnits="userSpaceOnUse">
      <stop stop-color="#4F9D4E"/>
      <stop offset="1" stop-color="#4F9D4E"/>
    </linearGradient>
    <clipPath id="clip0_21378_3777">
      <rect width="20" height="20" fill="white"/>
    </clipPath>
  </defs>
</svg>