<svg xmlns="http://www.w3.org/2000/svg" width="20" height="20" viewBox="0 0 20 20" fill="none">
  <g clip-path="url(#clip0_21378_4218)">
    <path d="M9.99935 3.3335C10.7118 3.3335 11.4427 3.35183 12.151 3.38183L12.9877 3.42183L13.7885 3.46933L14.5385 3.52016L15.2235 3.5735C15.9669 3.63039 16.6664 3.94762 17.199 4.46936C17.7315 4.99111 18.063 5.68395 18.1352 6.426L18.1685 6.78016L18.231 7.5385C18.2893 8.32433 18.3327 9.181 18.3327 10.0002C18.3327 10.8193 18.2893 11.676 18.231 12.4618L18.1685 13.2202C18.1577 13.3418 18.1468 13.4593 18.1352 13.5743C18.063 14.3165 17.7314 15.0095 17.1986 15.5312C16.6659 16.053 15.9662 16.3701 15.2227 16.4268L14.5393 16.4793L13.7893 16.531L12.9877 16.5785L12.151 16.6185C11.4342 16.6496 10.7168 16.6658 9.99935 16.6668C9.28187 16.6658 8.56449 16.6496 7.84768 16.6185L7.01101 16.5785L6.21018 16.531L5.46018 16.4793L4.77518 16.4268C4.03181 16.3699 3.33231 16.0527 2.79974 15.531C2.26718 15.0092 1.93566 14.3164 1.86352 13.5743L1.83018 13.2202L1.76768 12.4618C1.70396 11.6428 1.67005 10.8217 1.66602 10.0002C1.66602 9.181 1.70935 8.32433 1.76768 7.5385L1.83018 6.78016C1.84102 6.6585 1.85185 6.541 1.86352 6.426C1.93563 5.68408 2.26703 4.99134 2.79943 4.46962C3.33182 3.94789 4.03112 3.63058 4.77435 3.5735L5.45852 3.52016L6.20852 3.46933L7.01018 3.42183L7.84685 3.38183C8.56393 3.35069 9.28159 3.33458 9.99935 3.3335ZM9.99935 5.00016C9.31185 5.00016 8.60435 5.0185 7.91602 5.04683L7.10102 5.086L6.31852 5.13183L5.58352 5.18183L4.91018 5.23433C4.55629 5.25944 4.22272 5.40903 3.96859 5.6566C3.71447 5.90417 3.5562 6.23372 3.52185 6.58683C3.42435 7.59433 3.33268 8.8485 3.33268 10.0002C3.33268 11.1518 3.42435 12.406 3.52185 13.4135C3.59268 14.1402 4.16935 14.7052 4.91018 14.766L5.58352 14.8177L6.31852 14.8677L7.10102 14.9143L7.91602 14.9535C8.60435 14.9818 9.31185 15.0002 9.99935 15.0002C10.6868 15.0002 11.3943 14.9818 12.0827 14.9535L12.8977 14.9143L13.6802 14.8685L14.4152 14.8185L15.0885 14.766C15.4424 14.7409 15.776 14.5913 16.0301 14.3437C16.2842 14.0962 16.4425 13.7666 16.4768 13.4135C16.5743 12.406 16.666 11.1518 16.666 10.0002C16.666 8.8485 16.5743 7.59433 16.4768 6.58683C16.4425 6.23372 16.2842 5.90417 16.0301 5.6566C15.776 5.40903 15.4424 5.25944 15.0885 5.23433L14.4152 5.18266L13.6802 5.13266L12.8977 5.086L12.0827 5.04683C11.3886 5.01697 10.694 5.00141 9.99935 5.00016ZM8.33268 7.97933C8.33263 7.89788 8.35247 7.81766 8.39049 7.74562C8.4285 7.67359 8.48354 7.61194 8.55081 7.56602C8.61808 7.52011 8.69555 7.49132 8.77648 7.48217C8.85741 7.47301 8.93935 7.48377 9.01518 7.5135L9.08268 7.54683L12.5827 9.56683C12.6524 9.60704 12.7113 9.66349 12.7546 9.73136C12.7978 9.79923 12.824 9.87654 12.8309 9.9567C12.8379 10.0369 12.8254 10.1175 12.7945 10.1918C12.7636 10.2661 12.7152 10.3319 12.6535 10.3835L12.5827 10.4335L9.08268 12.4543C9.01215 12.4952 8.9327 12.5182 8.85126 12.5213C8.76982 12.5244 8.68885 12.5076 8.6154 12.4722C8.54195 12.4369 8.47825 12.3842 8.42984 12.3186C8.38144 12.253 8.3498 12.1766 8.33768 12.096L8.33268 12.021V7.97933Z" fill="url(#paint0_linear_21378_4218)"/>
  </g>
  <defs>
    <linearGradient id="paint0_linear_21378_4218" x1="10.0787" y1="-4.49984" x2="9.72879" y2="16.6624" gradientUnits="userSpaceOnUse">
      <stop stop-color="#4F9D4E"/>
      <stop offset="1" stop-color="#4F9D4E"/>
    </linearGradient>
    <clipPath id="clip0_21378_4218">
      <rect width="20" height="20" fill="white"/>
    </clipPath>
  </defs>
</svg>