<svg width="16" height="17" viewBox="0 0 16 17" fill="none" xmlns="http://www.w3.org/2000/svg">
<path d="M3.36552 10.3132C3.25588 10.1979 3.19648 10.0439 3.20038 9.88486C3.20428 9.72584 3.27116 9.57489 3.38632 9.46517L7.58632 5.46357C7.69791 5.35719 7.84616 5.29785 8.00032 5.29785C8.15449 5.29785 8.30274 5.35719 8.41432 5.46357L12.6143 9.46437C12.7249 9.57512 12.7878 9.72468 12.7897 9.88117C12.7915 10.0377 12.7322 10.1887 12.6242 10.302C12.5163 10.4153 12.3684 10.482 12.212 10.4879C12.0556 10.4937 11.9032 10.4382 11.7871 10.3332L7.99992 6.72677L4.21272 10.3332C4.09759 10.4429 3.9436 10.5025 3.78458 10.4987C3.62557 10.495 3.47535 10.4282 3.36552 10.3132Z" fill="#A0A3BD"/>
</svg>
