<svg width="28" height="28" viewBox="0 0 28 28" fill="none" xmlns="http://www.w3.org/2000/svg">
<rect width="28" height="28" rx="14" fill="black" fill-opacity="0.35"/>
<path fill-rule="evenodd" clip-rule="evenodd" d="M10.0066 8.82806C9.68114 8.50263 9.1535 8.50263 8.82806 8.82806C8.50263 9.1535 8.50263 9.68114 8.82806 10.0066L12.8221 14.0007L8.82806 17.9947C8.50263 18.3202 8.50263 18.8478 8.82806 19.1732C9.1535 19.4987 9.68114 19.4987 10.0066 19.1732L14.0007 15.1792L17.9947 19.1732C18.3202 19.4987 18.8478 19.4987 19.1732 19.1732C19.4987 18.8478 19.4987 18.3202 19.1732 17.9947L15.1792 14.0007L19.1732 10.0066C19.4987 9.68114 19.4987 9.1535 19.1732 8.82806C18.8478 8.50263 18.3202 8.50263 17.9947 8.82806L14.0007 12.8221L10.0066 8.82806Z" fill="white"/>
</svg>
