<svg xmlns="http://www.w3.org/2000/svg">
  <symbol id="icon" width="20" height="20" viewBox="0 0 20 20" fill="none">
    <path d="M7.08398 6.39339C7.08398 5.01589 8.33398 3.06006 10.0007 3.06006C11.6673 3.06006 12.9173 5.01589 12.9173 6.39339M3.33398 6.39339L4.05648 16.5126C4.08667 16.9336 4.2755 17.3275 4.58485 17.6148C4.8942 17.902 5.30102 18.0611 5.72315 18.0601H14.2865C14.7086 18.0611 15.1154 17.902 15.4248 17.6148C15.7341 17.3275 15.923 16.9336 15.9532 16.5126L16.6757 6.39339H3.34232H3.33398Z" stroke="currentColor" stroke-width="1.2" stroke-linecap="round" stroke-linejoin="round"/>
    <path d="M7.91797 14.7269C8.26214 15.1119 8.7513 15.5602 10.0013 15.5602C11.2513 15.5602 12.0846 14.8127 12.0846 13.8936C12.0846 12.9744 11.2513 12.6436 10.0013 12.2269C8.7513 11.8102 8.33464 11.0019 8.33464 10.5602C8.33464 9.64022 9.16797 8.89355 10.0013 8.89355C10.8346 8.89355 11.2513 8.89355 12.0846 9.72689" stroke="currentColor" stroke-width="1.2" stroke-linecap="round" stroke-linejoin="round"/>
  </symbol>
</svg>