<svg xmlns="http://www.w3.org/2000/svg">
  <symbol id="icon" width="20" height="20" viewBox="0 0 20 20" fill="none">
    <path d="M17.5 6.18506C16.5058 6.18402 15.5525 5.7886 14.8495 5.08557C14.1465 4.38253 13.751 3.4293 13.75 2.43506C13.75 2.2693 13.6842 2.11033 13.5669 1.99312C13.4497 1.87591 13.2908 1.81006 13.125 1.81006H10C9.83424 1.81006 9.67527 1.87591 9.55806 1.99312C9.44085 2.11033 9.375 2.2693 9.375 2.43506V12.7476C9.37487 13.0272 9.29972 13.3016 9.15739 13.5423C9.01506 13.7829 8.81076 13.981 8.5658 14.1158C8.32084 14.2506 8.0442 14.3172 7.76474 14.3086C7.48527 14.3001 7.21322 14.2167 6.97695 14.0672C6.74069 13.9177 6.54888 13.7075 6.42152 13.4586C6.29416 13.2097 6.23592 12.9312 6.25288 12.6521C6.26983 12.373 6.36137 12.1036 6.51793 11.8719C6.67449 11.6403 6.89034 11.4549 7.14297 11.3351C7.24983 11.2843 7.34011 11.2043 7.40331 11.1044C7.46651 11.0044 7.50004 10.8885 7.5 10.7702V7.43506C7.50004 7.3437 7.48005 7.25344 7.44144 7.17064C7.40283 7.08784 7.34653 7.01451 7.27652 6.95582C7.2065 6.89713 7.12447 6.8545 7.03621 6.83094C6.94794 6.80737 6.85558 6.80345 6.76562 6.81943C3.97734 7.31631 1.875 9.86475 1.875 12.7476C1.875 14.3223 2.50056 15.8325 3.61405 16.946C4.72755 18.0595 6.23778 18.6851 7.8125 18.6851C9.38722 18.6851 10.8974 18.0595 12.0109 16.946C13.1244 15.8325 13.75 14.3223 13.75 12.7476V9.64522C14.9075 10.2492 16.1944 10.5631 17.5 10.5601C17.6658 10.5601 17.8247 10.4942 17.9419 10.377C18.0592 10.2598 18.125 10.1008 18.125 9.93506V6.81006C18.125 6.6443 18.0592 6.48533 17.9419 6.36812C17.8247 6.25091 17.6658 6.18506 17.5 6.18506ZM16.875 9.28193C15.6536 9.1737 14.4841 8.7378 13.4898 8.02021C13.3964 7.95303 13.2862 7.91295 13.1714 7.9044C13.0566 7.89585 12.9417 7.91916 12.8394 7.97176C12.737 8.02436 12.6511 8.10421 12.5912 8.2025C12.5314 8.30079 12.4998 8.41371 12.5 8.52881V12.7476C12.5 13.9908 12.0061 15.183 11.1271 16.0621C10.248 16.9412 9.0557 17.4351 7.8125 17.4351C6.5693 17.4351 5.37701 16.9412 4.49794 16.0621C3.61886 15.183 3.125 13.9908 3.125 12.7476C3.125 10.7241 4.425 8.90928 6.25 8.24756V10.4093C5.84598 10.6792 5.51878 11.0492 5.30031 11.4833C5.08184 11.9173 4.97954 12.4005 5.00339 12.8858C5.02724 13.3712 5.17641 13.842 5.43638 14.2525C5.69635 14.6631 6.05825 14.9992 6.48679 15.2283C6.91533 15.4573 7.3959 15.5714 7.88166 15.5595C8.36742 15.5475 8.8418 15.4099 9.25857 15.1601C9.67533 14.9102 10.0203 14.5567 10.2597 14.1339C10.4992 13.7111 10.625 13.2335 10.625 12.7476V3.06006H12.5391C12.6796 4.1609 13.1816 5.18394 13.9664 5.96868C14.7511 6.75341 15.7742 7.25544 16.875 7.396V9.28193Z" fill="currentColor"/>
  </symbol>
</svg>