<svg xmlns="http://www.w3.org/2000/svg">
  <symbol id="icon" width="20" height="20" viewBox="0 0 20 20" fill="none">
    <path d="M2 7.30957C2 6.58022 2.28973 5.88075 2.80546 5.36503C3.32118 4.8493 4.02065 4.55957 4.75 4.55957H15.25C15.9793 4.55957 16.6788 4.8493 17.1945 5.36503C17.7103 5.88075 18 6.58022 18 7.30957V10.8166C17.6915 10.5619 17.3562 10.3416 17 10.1596V7.30957C17 6.84544 16.8156 6.40032 16.4874 6.07213C16.1592 5.74394 15.7141 5.55957 15.25 5.55957H4.75C4.28587 5.55957 3.84075 5.74394 3.51256 6.07213C3.18437 6.40032 3 6.84544 3 7.30957V13.8096C3 14.7756 3.784 15.5596 4.75 15.5596H9.022C9.05265 15.8979 9.11458 16.2327 9.207 16.5596H4.75C4.02065 16.5596 3.32118 16.2698 2.80546 15.7541C2.28973 15.2384 2 14.5389 2 13.8096V7.30957ZM19 15.0596C19 16.253 18.5259 17.3976 17.682 18.2416C16.8381 19.0855 15.6935 19.5596 14.5 19.5596C13.3065 19.5596 12.1619 19.0855 11.318 18.2416C10.4741 17.3976 10 16.253 10 15.0596C10 13.8661 10.4741 12.7215 11.318 11.8776C12.1619 11.0337 13.3065 10.5596 14.5 10.5596C15.6935 10.5596 16.8381 11.0337 17.682 11.8776C18.5259 12.7215 19 13.8661 19 15.0596ZM15 13.0596C15 12.927 14.9473 12.7998 14.8536 12.706C14.7598 12.6122 14.6326 12.5596 14.5 12.5596C14.3674 12.5596 14.2402 12.6122 14.1464 12.706C14.0527 12.7998 14 12.927 14 13.0596V14.5596H12.5C12.3674 14.5596 12.2402 14.6122 12.1464 14.706C12.0527 14.7998 12 14.927 12 15.0596C12 15.1922 12.0527 15.3194 12.1464 15.4131C12.2402 15.5069 12.3674 15.5596 12.5 15.5596H14V17.0596C14 17.1922 14.0527 17.3194 14.1464 17.4131C14.2402 17.5069 14.3674 17.5596 14.5 17.5596C14.6326 17.5596 14.7598 17.5069 14.8536 17.4131C14.9473 17.3194 15 17.1922 15 17.0596V15.5596H16.5C16.6326 15.5596 16.7598 15.5069 16.8536 15.4131C16.9473 15.3194 17 15.1922 17 15.0596C17 14.927 16.9473 14.7998 16.8536 14.706C16.7598 14.6122 16.6326 14.5596 16.5 14.5596H15V13.0596Z" fill="currentColor"/>
  </symbol>
</svg>