<svg xmlns="http://www.w3.org/2000/svg">
  <symbol id="icon" width="20" height="20" viewBox="0 0 20 20" fill="none">
    <path fill-rule="evenodd" clip-rule="evenodd" d="M9.09986 2.39024C9.19157 2.23288 9.32293 2.1023 9.48085 2.01155C9.63877 1.9208 9.81773 1.87305 9.99986 1.87305C10.182 1.87305 10.361 1.9208 10.5189 2.01155C10.6768 2.1023 10.8082 2.23288 10.8999 2.39024L13.229 6.38858L17.7524 7.36858C17.9303 7.40724 18.095 7.49187 18.23 7.61402C18.365 7.73617 18.4657 7.89158 18.5219 8.06476C18.5781 8.23794 18.588 8.42283 18.5505 8.60101C18.513 8.77919 18.4295 8.94442 18.3082 9.08024L15.2249 12.5311L15.6915 17.1352C15.7099 17.3165 15.6805 17.4995 15.6061 17.6658C15.5316 17.8322 15.4149 17.9761 15.2675 18.0832C15.12 18.1903 14.9471 18.2569 14.7659 18.2762C14.5847 18.2956 14.4016 18.2671 14.2349 18.1936L9.99986 16.3269L5.76487 18.1936C5.59813 18.2671 5.41502 18.2956 5.23383 18.2762C5.05263 18.2569 4.87968 18.1903 4.73226 18.0832C4.58483 17.9761 4.46808 17.8322 4.39367 17.6658C4.31926 17.4995 4.28979 17.3165 4.3082 17.1352L4.77487 12.5311L1.69153 9.08108C1.57006 8.94526 1.48633 8.77996 1.44871 8.60168C1.41109 8.42339 1.4209 8.23835 1.47715 8.06504C1.5334 7.89173 1.63414 7.7362 1.76929 7.61399C1.90444 7.49178 2.06928 7.40716 2.24737 7.36858L6.7707 6.38858L9.09986 2.39024ZM9.99986 4.15608L8.07237 7.46608C7.99948 7.59101 7.90138 7.6994 7.78431 7.78434C7.66723 7.86927 7.53375 7.92889 7.39237 7.95941L3.64903 8.77024L6.2007 11.6261C6.3957 11.8444 6.48987 12.1344 6.4607 12.4252L6.07487 16.2361L9.57987 14.6911C9.71221 14.6328 9.85524 14.6027 9.99986 14.6027C10.1445 14.6027 10.2875 14.6328 10.4199 14.6911L13.9249 16.2361L13.539 12.4252C13.5244 12.2813 13.5399 12.136 13.5845 11.9984C13.6291 11.8608 13.7019 11.734 13.7982 11.6261L16.3507 8.77024L12.6074 7.95941C12.466 7.92889 12.3325 7.86927 12.2154 7.78434C12.0984 7.6994 12.0002 7.59101 11.9274 7.46608L9.99986 4.15608Z" fill="currentColor"/>
    <circle cx="15.5" cy="15.5" r="3.5" fill="white"/>
    <path d="M16 10.25C17.3261 10.25 18.5979 10.7768 19.5355 11.7145C20.4732 12.6521 21 13.9239 21 15.25C21 16.5761 20.4732 17.8479 19.5355 18.7855C18.5979 19.7232 17.3261 20.25 16 20.25C14.6739 20.25 13.4021 19.7232 12.4645 18.7855C11.5268 17.8479 11 16.5761 11 15.25C11 13.9239 11.5268 12.6521 12.4645 11.7145C13.4021 10.7768 14.6739 10.25 16 10.25ZM15.5714 14.8214H13.9286C13.8149 14.8214 13.7059 14.8666 13.6255 14.947C13.5452 15.0273 13.5 15.1363 13.5 15.25C13.5 15.3637 13.5452 15.4727 13.6255 15.553C13.7059 15.6334 13.8149 15.6786 13.9286 15.6786H15.5714V17.3214C15.5714 17.4351 15.6166 17.5441 15.697 17.6245C15.7773 17.7048 15.8863 17.75 16 17.75C16.1137 17.75 16.2227 17.7048 16.303 17.6245C16.3834 17.5441 16.4286 17.4351 16.4286 17.3214V15.6786H18.0714C18.1851 15.6786 18.2941 15.6334 18.3745 15.553C18.4548 15.4727 18.5 15.3637 18.5 15.25C18.5 15.1363 18.4548 15.0273 18.3745 14.947C18.2941 14.8666 18.1851 14.8214 18.0714 14.8214H16.4286V13.1786C16.4286 13.0649 16.3834 12.9559 16.303 12.8755C16.2227 12.7952 16.1137 12.75 16 12.75C15.8863 12.75 15.7773 12.7952 15.697 12.8755C15.6166 12.9559 15.5714 13.0649 15.5714 13.1786V14.8214Z" fill="currentColor"/>
  </symbol>
</svg>