<svg xmlns="http://www.w3.org/2000/svg">
  <symbol id="icon" width="20" height="20" viewBox="0 0 20 20" fill="none">
    <path d="M10 17.5C7.90278 17.5 6.12861 17.1772 4.6775 16.5317C3.22639 15.8861 2.50056 15.0978 2.5 14.1667V5.83333C2.5 4.91667 3.23278 4.13194 4.69833 3.47917C6.16389 2.82639 7.93111 2.5 10 2.5C12.0694 2.5 13.8369 2.82639 15.3025 3.47917C16.7681 4.13194 17.5006 4.91667 17.5 5.83333V14.1667C17.5 15.0972 16.7742 15.8856 15.3225 16.5317C13.8708 17.1778 12.0967 17.5006 10 17.5ZM10 7.52083C11.2361 7.52083 12.4792 7.34361 13.7292 6.98917C14.9792 6.63472 15.6806 6.25639 15.8333 5.85417C15.6806 5.45139 14.9828 5.06944 13.74 4.70833C12.4972 4.34722 11.2506 4.16667 10 4.16667C8.73611 4.16667 7.49667 4.34389 6.28167 4.69833C5.06667 5.05278 4.36167 5.43806 4.16667 5.85417C4.36111 6.27083 5.06611 6.65278 6.28167 7C7.49722 7.34722 8.73667 7.52083 10 7.52083ZM10 11.6667C10.5833 11.6667 11.1458 11.6389 11.6875 11.5833C12.2292 11.5278 12.7467 11.4478 13.24 11.3433C13.7328 11.2394 14.1981 11.1111 14.6358 10.9583C15.0736 10.8056 15.4728 10.6319 15.8333 10.4375V7.9375C15.4722 8.13194 15.0731 8.30555 14.6358 8.45833C14.1986 8.61111 13.7333 8.73972 13.24 8.84417C12.7467 8.94806 12.2292 9.02778 11.6875 9.08333C11.1458 9.13889 10.5833 9.16667 10 9.16667C9.41667 9.16667 8.84722 9.13889 8.29167 9.08333C7.73611 9.02778 7.21167 8.94778 6.71833 8.84333C6.22556 8.73944 5.76389 8.61111 5.33333 8.45833C4.90278 8.30555 4.51389 8.13194 4.16667 7.9375V10.4375C4.51389 10.6319 4.90278 10.8056 5.33333 10.9583C5.76389 11.1111 6.22583 11.2397 6.71917 11.3442C7.21194 11.4481 7.73611 11.5278 8.29167 11.5833C8.84722 11.6389 9.41667 11.6667 10 11.6667ZM10 15.8333C10.6389 15.8333 11.2883 15.7847 11.9483 15.6875C12.6083 15.5903 13.2158 15.4619 13.7708 15.3025C14.3264 15.1425 14.7917 14.9619 15.1667 14.7608C15.5417 14.5597 15.7639 14.3547 15.8333 14.1458V12.1042C15.4722 12.2986 15.0731 12.4722 14.6358 12.625C14.1986 12.7778 13.7333 12.9064 13.24 13.0108C12.7467 13.1147 12.2292 13.1944 11.6875 13.25C11.1458 13.3056 10.5833 13.3333 10 13.3333C9.41667 13.3333 8.84722 13.3056 8.29167 13.25C7.73611 13.1944 7.21167 13.1144 6.71833 13.01C6.22556 12.9061 5.76389 12.7778 5.33333 12.625C4.90278 12.4722 4.51389 12.2986 4.16667 12.1042V14.1667C4.23611 14.375 4.455 14.5764 4.82333 14.7708C5.19167 14.9653 5.65333 15.1425 6.20833 15.3025C6.76389 15.4619 7.375 15.5903 8.04167 15.6875C8.70833 15.7847 9.36111 15.8333 10 15.8333Z" fill="currentColor"/>
  </symbol>
</svg>