<svg xmlns="http://www.w3.org/2000/svg">
  <symbol id="icon" width="20" height="20" viewBox="0 0 20 20" fill="none">
    <path d="M15.625 20.5C16.7853 20.5 17.8981 20.0391 18.7186 19.2186C19.5391 18.3981 20 17.2853 20 16.125C20 14.9647 19.5391 13.8519 18.7186 13.0314C17.8981 12.2109 16.7853 11.75 15.625 11.75C14.4647 11.75 13.3519 12.2109 12.5314 13.0314C11.7109 13.8519 11.25 14.9647 11.25 16.125C11.25 17.2853 11.7109 18.3981 12.5314 19.2186C13.3519 20.0391 14.4647 20.5 15.625 20.5ZM17.7238 14.8837L16.055 17.6663C15.9817 17.7885 15.8814 17.8924 15.7619 17.9701C15.6424 18.0478 15.5067 18.0972 15.3652 18.1145C15.2237 18.1319 15.0801 18.1167 14.9454 18.0702C14.8106 18.0238 14.6882 17.9471 14.5875 17.8462L13.62 16.88C13.5026 16.7626 13.4367 16.6035 13.4367 16.4375C13.4367 16.2715 13.5026 16.1124 13.62 15.995C13.7374 15.8776 13.8965 15.8117 14.0625 15.8117C14.2285 15.8117 14.3876 15.8776 14.505 15.995L15.1888 16.68L16.6512 14.2413C16.6934 14.1708 16.7491 14.1094 16.815 14.0605C16.8809 14.0116 16.9558 13.9761 17.0355 13.9562C17.1151 13.9362 17.1979 13.9321 17.2791 13.9441C17.3603 13.9562 17.4383 13.9841 17.5087 14.0262C17.5792 14.0684 17.6406 14.1241 17.6895 14.19C17.7384 14.2559 17.7739 14.3308 17.7938 14.4105C17.8138 14.4901 17.8179 14.5729 17.8059 14.6541C17.7938 14.7353 17.7659 14.8133 17.7238 14.8837ZM13.75 6.75C13.75 7.74456 13.3549 8.69839 12.6517 9.40165C11.9484 10.1049 10.9946 10.5 10 10.5C9.00544 10.5 8.05161 10.1049 7.34835 9.40165C6.64509 8.69839 6.25 7.74456 6.25 6.75C6.25 5.75544 6.64509 4.80161 7.34835 4.09835C8.05161 3.39509 9.00544 3 10 3C10.9946 3 11.9484 3.39509 12.6517 4.09835C13.3549 4.80161 13.75 5.75544 13.75 6.75ZM10 9.25C10.663 9.25 11.2989 8.98661 11.7678 8.51777C12.2366 8.04893 12.5 7.41304 12.5 6.75C12.5 6.08696 12.2366 5.45107 11.7678 4.98223C11.2989 4.51339 10.663 4.25 10 4.25C9.33696 4.25 8.70107 4.51339 8.23223 4.98223C7.76339 5.45107 7.5 6.08696 7.5 6.75C7.5 7.41304 7.76339 8.04893 8.23223 8.51777C8.70107 8.98661 9.33696 9.25 10 9.25Z" fill="currentColor"/>
    <path d="M10.32 18C10.1766 17.5941 10.0805 17.173 10.0338 16.745H3.75C3.75125 16.4375 3.9425 15.5125 4.79 14.665C5.605 13.85 7.13875 13 10 13C10.325 13 10.6338 13.0112 10.925 13.0312C11.2075 12.605 11.545 12.2188 11.93 11.8838C11.3463 11.7975 10.705 11.75 10 11.75C3.75 11.75 2.5 15.5 2.5 16.75C2.5 18 3.75 18 3.75 18H10.32Z" fill="currentColor"/>
  </symbol>
</svg>
