<svg xmlns="http://www.w3.org/2000/svg">
  <symbol id="icon" width="20" height="20" viewBox="0 0 20 20" fill="none">
    <path d="M17.326 4.33855C18 5.34755 18 6.75055 18 9.56055C18 12.3695 18 13.7735 17.326 14.7825C17.034 15.2194 16.6589 15.5946 16.222 15.8865C15.341 16.4755 14.158 16.5495 12 16.5595L10.894 18.7715C10.8109 18.9374 10.6832 19.0769 10.5253 19.1744C10.3674 19.2719 10.1856 19.3235 10 19.3235C9.81445 19.3235 9.63256 19.2719 9.47468 19.1744C9.31679 19.0769 9.18914 18.9374 9.106 18.7715L8 16.5605C5.842 16.5505 4.66 16.4755 3.778 15.8865C3.34109 15.5946 2.96595 15.2195 2.674 14.7825C2 13.7735 2 12.3705 2 9.56055C2 6.75155 2 5.34755 2.674 4.33855C2.96591 3.9016 3.34106 3.52646 3.778 3.23455C4.787 2.56055 6.19 2.56055 9 2.56055H11C13.809 2.56055 15.213 2.56055 16.222 3.23455C16.6589 3.52646 17.0341 3.9016 17.326 4.33855Z" stroke="currentColor" stroke-width="1.66667" stroke-linecap="round" stroke-linejoin="round"/>
    <path d="M13.9891 8.79783L12.2292 10.3337L12.7564 12.6204C12.7843 12.7399 12.7763 12.865 12.7335 12.9801C12.6907 13.0951 12.6149 13.195 12.5156 13.2672C12.4164 13.3394 12.298 13.3807 12.1754 13.386C12.0527 13.3913 11.9313 13.3604 11.8261 13.297L9.83173 12.0873L7.84164 13.297C7.73651 13.3604 7.61503 13.3913 7.49239 13.386C7.36975 13.3807 7.2514 13.3394 7.15213 13.2672C7.05286 13.195 6.97708 13.0951 6.93426 12.9801C6.89144 12.865 6.88348 12.7399 6.91137 12.6204L7.43777 10.3361L5.67751 8.79783C5.58441 8.71754 5.51709 8.61154 5.48399 8.49313C5.45089 8.37473 5.45349 8.24918 5.49145 8.13225C5.52941 8.01531 5.60106 7.91219 5.6974 7.83581C5.79374 7.75942 5.91049 7.71319 6.033 7.70289L8.35321 7.50193L9.2589 5.34171C9.3062 5.22836 9.38597 5.13153 9.48818 5.06343C9.5904 4.99532 9.71047 4.95898 9.8333 4.95898C9.95612 4.95898 10.0762 4.99532 10.1784 5.06343C10.2806 5.13153 10.3604 5.22836 10.4077 5.34171L11.3161 7.50193L13.6355 7.70289C13.7581 7.71319 13.8748 7.75942 13.9711 7.83581C14.0675 7.91219 14.1391 8.01531 14.1771 8.13225C14.2151 8.24918 14.2177 8.37473 14.1846 8.49313C14.1515 8.61154 14.0841 8.71754 13.991 8.79783H13.9891Z" fill="currentColor"/>
  </symbol>
</svg>