<svg xmlns="http://www.w3.org/2000/svg">
  <symbol id="icon" width="20" height="20" viewBox="0 0 20 20" fill="none">
    <path d="M7.50016 7.49967H12.5002M7.50016 10.833H10.0002M16.1052 4.81467C16.6668 5.65551 16.6668 6.82467 16.6668 9.16634C16.6668 11.5072 16.6668 12.6772 16.1052 13.518C15.8619 13.8821 15.5492 14.1947 15.1852 14.438C14.451 14.9288 13.4652 14.9905 11.6668 14.9988L10.7452 16.8422C10.6759 16.9804 10.5695 17.0966 10.4379 17.1779C10.3064 17.2591 10.1548 17.3021 10.0002 17.3021C9.84554 17.3021 9.69396 17.2591 9.56239 17.1779C9.43082 17.0966 9.32444 16.9804 9.25516 16.8422L8.3335 14.9997C6.53516 14.9913 5.55016 14.9288 4.81516 14.438C4.45107 14.1947 4.13846 13.8821 3.89516 13.518C3.3335 12.6772 3.3335 11.508 3.3335 9.16634C3.3335 6.82551 3.3335 5.65551 3.89516 4.81467C4.13842 4.45055 4.45104 4.13793 4.81516 3.89467C5.656 3.33301 6.82516 3.33301 9.16683 3.33301H10.8335C13.1743 3.33301 14.3443 3.33301 15.1852 3.89467C15.5493 4.13793 15.8619 4.45055 16.1052 4.81467Z" stroke="currentColor" stroke-width="1.66667" stroke-linecap="round" stroke-linejoin="round"/>
  </symbol>
</svg>