<svg xmlns="http://www.w3.org/2000/svg">
  <symbol id="icon" fill="none" viewBox="0 0 20 20" width="20" height="20">
    <path d="M5.111 17.5002C4.12933 17.5002 3.3335 16.6836 3.3335 15.6752V8.34023C3.3335 7.78606 3.57933 7.26106 4.00016 6.91523L8.88933 2.90023C9.20171 2.64155 9.59458 2.5 10.0002 2.5C10.4057 2.5 10.7986 2.64155 11.111 2.90023L15.9993 6.91523C16.421 7.26106 16.6668 7.78606 16.6668 8.34023V15.6752C16.6668 16.6836 15.871 17.5002 14.8893 17.5002H5.111Z" stroke="currentColor" stroke-width="1.5" stroke-linecap="round" stroke-linejoin="round"/>
    <path d="M7.91699 17.5V12.9167C7.91699 12.4746 8.09259 12.0507 8.40515 11.7382C8.71771 11.4256 9.14163 11.25 9.58366 11.25H10.417C10.859 11.25 11.2829 11.4256 11.5955 11.7382C11.9081 12.0507 12.0837 12.4746 12.0837 12.9167V17.5" stroke="currentColor" stroke-width="1.5" stroke-linecap="round" stroke-linejoin="round"/>
  </symbol>
</svg>
