<svg xmlns="http://www.w3.org/2000/svg">
  <symbol id="icon" width="20" height="20" viewBox="0 0 20 20" fill="none">
    <path d="M13.7931 6.28454C13.9303 6.42874 14.0047 6.62152 13.9998 6.82051C13.9949 7.0195 13.9112 7.2084 13.7671 7.3457L8.51134 12.3532C8.37171 12.4863 8.18619 12.5605 7.99327 12.5605C7.80036 12.5605 7.61484 12.4863 7.47521 12.3532L2.21946 7.3467C2.08111 7.20811 2.00237 7.02095 2.00005 6.82513C1.99774 6.62931 2.07202 6.44034 2.20705 6.29851C2.34209 6.15668 2.52719 6.07323 2.72289 6.06594C2.91859 6.05866 3.10938 6.12812 3.25459 6.25952L7.99377 10.7724L12.733 6.25952C12.877 6.12218 13.0697 6.04767 13.2687 6.05236C13.4677 6.05706 13.6557 6.14057 13.7931 6.28454Z" fill="currentColor"/>
  </symbol>
</svg>