<svg xmlns="http://www.w3.org/2000/svg">
  <symbol id="icon" width="16" height="16" viewBox="0 0 16 16" fill="none">
    <path d="M12.1954 4.74398C12.4549 4.48441 12.4549 4.06356 12.1954 3.80398C11.9358 3.54441 11.5149 3.54441 11.2554 3.80398L7.9987 7.06065L4.74203 3.80398C4.48246 3.54441 4.06161 3.54441 3.80203 3.80398C3.54246 4.06356 3.54246 4.48441 3.80203 4.74398L7.0587 8.00065L3.80203 11.2573C3.54246 11.5169 3.54246 11.9377 3.80203 12.1973C4.06161 12.4569 4.48246 12.4569 4.74203 12.1973L7.9987 8.94065L11.2554 12.1973C11.5149 12.4569 11.9358 12.4569 12.1954 12.1973C12.4549 11.9377 12.4549 11.5169 12.1954 11.2573L8.9387 8.00065L12.1954 4.74398Z" fill="currentColor"/>
  </symbol>
</svg>