<svg xmlns="http://www.w3.org/2000/svg">
  <symbol id="icon" width="20" height="20" viewBox="0 0 20 20" fill="none">
    <path d="M6.5384 2C6.68692 2 6.82936 2.059 6.93438 2.16402C7.0394 2.26904 7.0984 2.41148 7.0984 2.56V3.6072H13.112V2.5672C13.112 2.41868 13.171 2.27624 13.276 2.17122C13.381 2.0662 13.5235 2.0072 13.672 2.0072C13.8205 2.0072 13.963 2.0662 14.068 2.17122C14.173 2.27624 14.232 2.41868 14.232 2.5672V3.6072H16.4C16.8242 3.6072 17.2311 3.77566 17.5311 4.07555C17.8311 4.37543 17.9998 4.78219 18 5.2064V16.4008C17.9998 16.825 17.8311 17.2318 17.5311 17.5317C17.2311 17.8315 16.8242 18 16.4 18H3.6C3.17579 18 2.76895 17.8315 2.46891 17.5317C2.16888 17.2318 2.00021 16.825 2 16.4008V5.2064C2.00021 4.78219 2.16888 4.37543 2.46891 4.07555C2.76895 3.77566 3.17579 3.6072 3.6 3.6072H5.9784V2.5592C5.97861 2.41082 6.03771 2.26858 6.1427 2.16374C6.2477 2.05889 6.39002 2 6.5384 2ZM3.12 8.1936V16.4008C3.12 16.4638 3.13242 16.5263 3.15654 16.5845C3.18066 16.6427 3.21602 16.6956 3.26059 16.7402C3.30516 16.7848 3.35808 16.8201 3.41631 16.8443C3.47455 16.8684 3.53697 16.8808 3.6 16.8808H16.4C16.463 16.8808 16.5255 16.8684 16.5837 16.8443C16.6419 16.8201 16.6948 16.7848 16.7394 16.7402C16.784 16.6956 16.8193 16.6427 16.8435 16.5845C16.8676 16.5263 16.88 16.4638 16.88 16.4008V8.2048L3.12 8.1936ZM7.3336 13.6952V15.028H6V13.6952H7.3336ZM10.6664 13.6952V15.028H9.3336V13.6952H10.6664ZM14 13.6952V15.028H12.6664V13.6952H14ZM7.3336 10.5136V11.8464H6V10.5136H7.3336ZM10.6664 10.5136V11.8464H9.3336V10.5136H10.6664ZM14 10.5136V11.8464H12.6664V10.5136H14ZM5.9784 4.7264H3.6C3.53697 4.7264 3.47455 4.73882 3.41631 4.76294C3.35808 4.78706 3.30516 4.82242 3.26059 4.86699C3.21602 4.91156 3.18066 4.96448 3.15654 5.02271C3.13242 5.08095 3.12 5.14337 3.12 5.2064V7.0744L16.88 7.0856V5.2064C16.88 5.14337 16.8676 5.08095 16.8435 5.02271C16.8193 4.96448 16.784 4.91156 16.7394 4.86699C16.6948 4.82242 16.6419 4.78706 16.5837 4.76294C16.5255 4.73882 16.463 4.7264 16.4 4.7264H14.232V5.4696C14.232 5.61812 14.173 5.76056 14.068 5.86558C13.963 5.9706 13.8205 6.0296 13.672 6.0296C13.5235 6.0296 13.381 5.9706 13.276 5.86558C13.171 5.76056 13.112 5.61812 13.112 5.4696V4.7264H7.0984V5.4624C7.0984 5.61092 7.0394 5.75336 6.93438 5.85838C6.82936 5.9634 6.68692 6.0224 6.5384 6.0224C6.38988 6.0224 6.24744 5.9634 6.14242 5.85838C6.0374 5.75336 5.9784 5.61092 5.9784 5.4624V4.7264Z" fill="currentColor"/>  
  </symbol>
</svg>