<svg xmlns="http://www.w3.org/2000/svg">
  <symbol id="icon" width="20" height="20" viewBox="0 0 20 20" fill="none">
		<path d="M8.21401 4.28488H11.7854C11.7854 3.81128 11.5973 3.35707 11.2624 3.02219C10.9275 2.6873 10.4733 2.49916 9.99972 2.49916C9.52612 2.49916 9.07192 2.6873 8.73703 3.02219C8.40214 3.35707 8.21401 3.81128 8.21401 4.28488ZM7.14258 4.28488C7.14258 3.52712 7.4436 2.80039 7.97942 2.26457C8.51523 1.72875 9.24196 1.42773 9.99972 1.42773C10.7575 1.42773 11.4842 1.72875 12.02 2.26457C12.5558 2.80039 12.8569 3.52712 12.8569 4.28488H17.3211C17.4632 4.28488 17.5995 4.34132 17.7 4.44178C17.8004 4.54225 17.8569 4.67851 17.8569 4.82059C17.8569 4.96267 17.8004 5.09893 17.7 5.1994C17.5995 5.29986 17.4632 5.35631 17.3211 5.35631H16.3854L15.5161 15.787C15.4529 16.5458 15.1068 17.2532 14.5465 17.7687C13.9862 18.2843 13.2526 18.5705 12.4912 18.5706H7.50829C6.74686 18.5705 6.01325 18.2843 5.45294 17.7687C4.89263 17.2532 4.54654 16.5458 4.48329 15.787L3.61401 5.35631H2.67829C2.53621 5.35631 2.39995 5.29986 2.29949 5.1994C2.19902 5.09893 2.14258 4.96267 2.14258 4.82059C2.14258 4.67851 2.19902 4.54225 2.29949 4.44178C2.39995 4.34132 2.53621 4.28488 2.67829 4.28488H7.14258ZM5.55115 15.6977C5.592 16.1887 5.81588 16.6465 6.1784 16.9801C6.54091 17.3138 7.01559 17.4991 7.50829 17.4992H12.4912C12.9839 17.4991 13.4585 17.3138 13.821 16.9801C14.1836 16.6465 14.4074 16.1887 14.4483 15.6977L15.3112 5.35631H4.68901L5.55115 15.6977ZM8.39258 7.85631C8.53466 7.85631 8.67092 7.91275 8.77139 8.01321C8.87185 8.11368 8.92829 8.24994 8.92829 8.39202V14.4634C8.92829 14.6055 8.87185 14.7418 8.77139 14.8423C8.67092 14.9427 8.53466 14.9992 8.39258 14.9992C8.2505 14.9992 8.11424 14.9427 8.01377 14.8423C7.91331 14.7418 7.85686 14.6055 7.85686 14.4634V8.39202C7.85686 8.24994 7.91331 8.11368 8.01377 8.01321C8.11424 7.91275 8.2505 7.85631 8.39258 7.85631ZM12.1426 8.39202C12.1426 8.24994 12.0861 8.11368 11.9857 8.01321C11.8852 7.91275 11.7489 7.85631 11.6069 7.85631C11.4648 7.85631 11.3285 7.91275 11.2281 8.01321C11.1276 8.11368 11.0711 8.24994 11.0711 8.39202V14.4634C11.0711 14.6055 11.1276 14.7418 11.2281 14.8423C11.3285 14.9427 11.4648 14.9992 11.6069 14.9992C11.7489 14.9992 11.8852 14.9427 11.9857 14.8423C12.0861 14.7418 12.1426 14.6055 12.1426 14.4634V8.39202Z" fill="currentColor"/>
  </symbol>
</svg>