<svg xmlns="http://www.w3.org/2000/svg">
  <symbol id="icon" viewBox="0 0 20 20" fill="none">
    <path d="M15 4H3C2.73478 4 2.48043 4.10536 2.29289 4.29289C2.10536 4.48043 2 4.73478 2 5V13C2 13.2652 2.10536 13.5196 2.29289 13.7071C2.48043 13.8946 2.73478 14 3 14H15C15.2652 14 15.5196 13.8946 15.7071 13.7071C15.8946 13.5196 16 13.2652 16 13V5C16 4.73478 15.8946 4.48043 15.7071 4.29289C15.5196 4.10536 15.2652 4 15 4ZM13.9 5L9 8.39L4.1 5H13.9ZM3 13V5.455L8.715 9.41C8.7987 9.46806 8.89813 9.49918 9 9.49918C9.10187 9.49918 9.2013 9.46806 9.285 9.41L15 5.455V13H3Z" fill="currentColor"/>
  </symbol>
</svg>