<svg width="76" height="50" viewBox="0 0 76 50" fill="none" xmlns="http://www.w3.org/2000/svg">
<path d="M69.8649 49.084H7.29895C6.51069 49.0685 5.75546 48.7645 5.17634 48.2295C4.59723 47.6945 4.23444 46.9657 4.15672 46.1811L0.632689 3.82305C0.595035 3.45307 0.636084 3.07932 0.753143 2.72633C0.870202 2.37335 1.06062 2.04912 1.31189 1.77496C1.56316 1.5008 1.86959 1.2829 2.21105 1.13558C2.55251 0.988265 2.92128 0.914862 3.29313 0.920193H65.856C66.6446 0.935558 67.4002 1.23947 67.9798 1.77441C68.5594 2.30935 68.9228 3.03821 69.0013 3.82305L72.5253 46.175C72.5634 46.5454 72.5227 46.9196 72.4058 47.2731C72.289 47.6266 72.0987 47.9514 71.8474 48.2261C71.5962 48.5009 71.2896 48.7193 70.9479 48.8672C70.6062 49.015 70.2371 49.0889 69.8649 49.084Z" fill="white"/>
<path d="M69.8651 49.2052H7.29921C6.4802 49.1919 5.69477 48.8775 5.09283 48.3219C4.49089 47.7664 4.1146 47.0086 4.03577 46.1933L0.511745 3.83829C0.476159 3.45185 0.521653 3.06222 0.645314 2.69437C0.768976 2.32652 0.968081 1.98853 1.22988 1.70206C1.49036 1.41369 1.80885 1.18363 2.16447 1.02697C2.52009 0.870312 2.90481 0.790586 3.2934 0.793023H65.8563C66.6787 0.806077 67.4672 1.12274 68.0702 1.68211C68.6732 2.24148 69.0481 3.00404 69.1227 3.82314L72.6437 46.1751C72.6826 46.5614 72.6395 46.9515 72.517 47.3199C72.3946 47.6882 72.1957 48.0266 71.9333 48.3127C71.6709 48.5988 71.351 48.8262 70.9946 48.9801C70.6382 49.1339 70.2533 49.2106 69.8651 49.2052ZM3.2934 1.04755C2.93772 1.04178 2.58486 1.11152 2.25812 1.25217C1.93139 1.39282 1.63821 1.60119 1.39794 1.86351C1.15767 2.12582 0.975782 2.43613 0.864285 2.77393C0.752788 3.11173 0.71422 3.46934 0.751125 3.82314L4.27515 46.1721C4.35011 46.9279 4.70021 47.6298 5.25889 48.1444C5.81757 48.6589 6.54586 48.9502 7.30527 48.9628H69.8651C70.22 48.9681 70.5719 48.8982 70.8978 48.7577C71.2237 48.6172 71.5162 48.4093 71.7561 48.1477C71.9959 47.8862 72.1777 47.5768 72.2894 47.2399C72.4011 46.9031 72.4403 46.5464 72.4044 46.1933L68.8803 3.83829C68.806 3.08223 68.4561 2.37994 67.8973 1.86527C67.3385 1.3506 66.6098 1.05953 65.8502 1.04755H3.2934Z" fill="#EE3A31"/>
<path d="M65.8554 0.926043H3.29252C2.92124 0.920807 2.55303 0.994066 2.21203 1.14102C1.87103 1.28798 1.56491 1.50531 1.31374 1.7788C1.06257 2.05228 0.872011 2.37574 0.754539 2.72799C0.637067 3.08024 0.595336 3.45334 0.632078 3.82284H69.0007C68.9208 3.03909 68.5568 2.31169 67.9774 1.778C67.3979 1.2443 66.643 0.94124 65.8554 0.926043Z" fill="#EE3A31"/>
<path d="M4.75631 2.37726C4.76491 2.45712 4.75644 2.53789 4.73146 2.61422C4.70647 2.69055 4.66554 2.76069 4.61139 2.82001C4.55724 2.87932 4.49109 2.92644 4.41734 2.95825C4.34359 2.99005 4.26393 3.00582 4.18362 3.0045C4.0134 3.00091 3.85037 2.93513 3.72533 2.81957C3.60028 2.70401 3.52186 2.54668 3.50487 2.37726C3.49677 2.29751 3.50559 2.21694 3.53075 2.14082C3.55592 2.06471 3.59687 1.99476 3.65093 1.93556C3.70498 1.87635 3.77093 1.82923 3.84445 1.79726C3.91796 1.76529 3.9974 1.74919 4.07757 1.75003C4.24819 1.7523 4.41194 1.81763 4.53726 1.93344C4.66258 2.04926 4.74061 2.20735 4.75631 2.37726Z" fill="white"/>
<path d="M7.30278 2.37726C7.31139 2.45712 7.30291 2.53789 7.27793 2.61422C7.25294 2.69055 7.21202 2.76069 7.15786 2.82001C7.10371 2.87932 7.03756 2.92644 6.96382 2.95825C6.89007 2.99005 6.8104 3.00582 6.73009 3.0045C6.56199 2.99802 6.4019 2.93094 6.27937 2.81566C6.15685 2.70038 6.08017 2.54466 6.06347 2.37726C6.05536 2.29751 6.06418 2.21694 6.08935 2.14082C6.11452 2.06471 6.15547 1.99476 6.20952 1.93556C6.26358 1.87635 6.32952 1.82923 6.40304 1.79726C6.47656 1.76529 6.55599 1.74919 6.63616 1.75003C6.80467 1.75524 6.96546 1.82188 7.08825 1.93741C7.21104 2.05294 7.28734 2.20938 7.30278 2.37726Z" fill="white"/>
<path d="M9.84811 2.37726C9.85671 2.45712 9.84824 2.53789 9.82325 2.61422C9.79827 2.69055 9.75734 2.76069 9.70318 2.82001C9.64903 2.87932 9.58289 2.92644 9.50914 2.95825C9.43539 2.99005 9.35572 3.00582 9.27542 3.0045C9.10519 3.00091 8.94217 2.93513 8.81712 2.81957C8.69208 2.70401 8.61366 2.54668 8.59667 2.37726C8.58856 2.29751 8.59738 2.21694 8.62255 2.14082C8.64772 2.06471 8.68867 1.99476 8.74272 1.93556C8.79678 1.87635 8.86272 1.82923 8.93624 1.79726C9.00976 1.76529 9.0892 1.74919 9.16936 1.75003C9.33999 1.7523 9.50373 1.81763 9.62906 1.93344C9.75438 2.04926 9.83241 2.20735 9.84811 2.37726Z" fill="white"/>
<path d="M64.4358 43.5321H11.8208C11.1941 43.5204 10.5935 43.2792 10.1327 42.8542C9.67198 42.4292 9.38315 41.85 9.32095 41.2262L6.84837 11.7007C6.81882 11.4063 6.85194 11.1089 6.94555 10.8281C7.03915 10.5474 7.19113 10.2896 7.39148 10.0718C7.59183 9.85401 7.83602 9.68108 8.10799 9.56439C8.37996 9.44771 8.67355 9.38992 8.96945 9.39482H61.5935C62.2202 9.40656 62.8209 9.64779 63.2816 10.0728C63.7424 10.4978 64.0312 11.077 64.0934 11.7007L66.5508 41.2414C66.578 41.5341 66.5434 41.8293 66.4491 42.1078C66.3548 42.3863 66.203 42.6419 66.0036 42.8579C65.8041 43.0739 65.5615 43.2456 65.2914 43.3617C65.0213 43.4779 64.7298 43.536 64.4358 43.5321Z" fill="#F0F0F0"/>
<path opacity="0.1" d="M48.1566 14.5517L31.8546 34.1809C31.3422 34.7972 30.9974 35.5353 30.8533 36.3237C30.7092 37.1122 30.7708 37.9245 31.0321 38.6822C31.2934 39.44 31.7456 40.1176 32.3451 40.6496C32.9446 41.1817 33.671 41.5503 34.4544 41.7198L60.9074 47.4376C61.7347 47.6171 62.5953 47.5679 63.3969 47.2955C64.1984 47.023 64.9107 46.5374 65.4572 45.8909C66.0038 45.2444 66.364 44.4613 66.4993 43.6255C66.6346 42.7898 66.5399 41.9331 66.2252 41.1471L56.0834 15.7971C55.7838 15.0449 55.2935 14.3837 54.6608 13.8785C54.0281 13.3733 53.2747 13.0416 52.4749 12.9159C51.675 12.7902 50.8562 12.875 50.0991 13.1618C49.3419 13.4486 48.6725 13.9277 48.1566 14.5517Z" fill="#263238"/>
<path opacity="0.1" d="M11.8678 17.3047L6.18932 32.6098C6.01926 33.0771 5.97027 33.5798 6.04693 34.0711C6.12358 34.5624 6.32338 35.0263 6.6277 35.4196C6.93203 35.8129 7.33096 36.1227 7.78733 36.3201C8.24369 36.5176 8.74262 36.5963 9.23762 36.549L25.8215 34.9218C26.3492 34.8702 26.8532 34.6772 27.2804 34.363C27.7075 34.0488 28.0419 33.6251 28.2482 33.1367C28.4546 32.6483 28.5253 32.1132 28.4528 31.5879C28.3803 31.0627 28.1674 30.5667 27.8365 30.1524L16.9281 16.4865C16.6022 16.0798 16.1742 15.7668 15.6878 15.5795C15.2014 15.3922 14.674 15.3374 14.1594 15.4206C13.6449 15.5038 13.1617 15.722 12.759 16.053C12.3564 16.384 12.0489 16.8159 11.8678 17.3047Z" fill="#263238"/>
<path d="M53.7808 9.61032L38.5393 31.7302C38.0633 32.4211 37.7725 33.2226 37.6949 34.0581C37.6172 34.8935 37.7553 35.7349 38.0958 36.5017C38.4363 37.2685 38.968 37.9351 39.6398 38.4377C40.3117 38.9403 41.1013 39.262 41.9331 39.3722L69.9496 43.1022C70.8307 43.2196 71.7271 43.0952 72.543 42.7423C73.3589 42.3895 74.0634 41.8215 74.5814 41.0991C75.0993 40.3766 75.4111 39.527 75.4833 38.641C75.5556 37.7551 75.3857 36.8661 74.9917 36.0693L62.2167 10.2103C61.8375 9.44421 61.2646 8.79059 60.5549 8.31425C59.8451 7.83791 59.0232 7.55541 58.1706 7.49478C57.3179 7.43414 56.4643 7.59747 55.6943 7.96856C54.9242 8.33966 54.2646 8.90563 53.7808 9.61032Z" fill="#EE3A31"/>
<path d="M42.5977 37.3965C42.0917 37.3277 41.6106 37.1348 41.1971 36.8351C40.7837 36.5353 40.4508 36.138 40.2282 35.6784C39.9986 35.244 39.8906 34.7557 39.9157 34.265C39.9407 33.7743 40.0979 33.2995 40.3706 32.8907L55.6515 10.7042C55.9277 10.3084 56.3099 9.99848 56.7541 9.80985C57.1984 9.62121 57.6868 9.56151 58.1634 9.63759C58.6696 9.70588 59.151 9.89854 59.5645 10.1984C59.978 10.4982 60.3107 10.8958 60.533 11.3557L73.3322 37.2783C73.5618 37.7127 73.6698 38.2011 73.6447 38.6918C73.6196 39.1825 73.4625 39.6573 73.1898 40.066C72.9141 40.4626 72.5322 40.7734 72.0878 40.9626C71.6435 41.1518 71.1547 41.2118 70.6778 41.1357L42.5977 37.3965Z" fill="white"/>
<path d="M56.863 17.4795L58.6477 17.7158C59.2057 17.7945 59.7152 18.0759 60.079 18.5062C60.4428 18.9365 60.6355 19.4857 60.6203 20.049L60.4991 22.3762C60.4962 22.4606 60.4871 22.5446 60.4719 22.6277L59.2022 29.6424C59.1113 30.1259 58.8353 30.5547 58.4329 30.8377C58.0305 31.1207 57.5335 31.2354 57.0478 31.1575C56.5323 31.0842 56.0567 30.8386 55.6985 30.4606C55.3404 30.0826 55.1207 29.5945 55.0752 29.0758L54.5631 21.8277C54.5571 21.744 54.5571 21.6599 54.5631 21.5762L54.6813 19.2461C54.6941 18.9813 54.7626 18.7223 54.8825 18.4859C55.0023 18.2496 55.1707 18.0412 55.3767 17.8744C55.5826 17.7076 55.8215 17.5862 56.0776 17.5182C56.3338 17.4501 56.6014 17.4369 56.863 17.4795ZM56.7206 33.1028L57.2054 33.1664C57.7048 33.2369 58.1608 33.4886 58.4865 33.8736C58.8123 34.2586 58.9851 34.75 58.9719 35.2542C58.9613 35.4919 58.9005 35.7247 58.7935 35.9373C58.6866 36.1499 58.5359 36.3374 58.3513 36.4877C58.1667 36.6379 57.9525 36.7474 57.7226 36.809C57.4928 36.8706 57.2525 36.8828 57.0175 36.845L56.5327 36.7783C56.0336 36.7085 55.5776 36.4574 55.2518 36.0729C54.926 35.6884 54.7531 35.1974 54.7661 34.6936C54.7763 34.4557 54.8368 34.2227 54.9436 34.0098C55.0504 33.797 55.2011 33.6093 55.3858 33.4589C55.5705 33.3086 55.7849 33.1992 56.015 33.1378C56.2451 33.0764 56.4856 33.0645 56.7206 33.1028Z" fill="#EE3A31"/>
<path d="M17.7298 12.9925L13.5452 28.8612C13.419 29.3434 13.4172 29.8498 13.5401 30.3328C13.6629 30.8159 13.9064 31.2599 14.2476 31.6232C14.5888 31.9865 15.0167 32.2573 15.4911 32.4102C15.9655 32.5631 16.471 32.5931 16.9601 32.4974L33.1925 29.3309C33.7075 29.2282 34.1857 28.9896 34.5775 28.6399C34.9693 28.2902 35.2605 27.8422 35.4209 27.3421C35.5813 26.842 35.6051 26.3082 35.4898 25.7958C35.3745 25.2835 35.1243 24.8113 34.7651 24.4281L22.7295 11.7168C22.3685 11.3332 21.9114 11.0534 21.4056 10.9063C20.8998 10.7592 20.3639 10.7504 19.8535 10.8806C19.3432 11.0108 18.877 11.2754 18.5035 11.6468C18.13 12.0182 17.8628 12.4828 17.7298 12.9925Z" fill="#EE3A31"/>
<path d="M16.9262 31.2181C16.6282 31.2721 16.3213 31.2498 16.0342 31.1534C15.7471 31.057 15.489 30.8895 15.2839 30.6666C15.0723 30.4519 14.9194 30.1865 14.8398 29.8957C14.7602 29.605 14.7566 29.2987 14.8294 29.0061L19.0231 13.095C19.0958 12.817 19.246 12.5654 19.4564 12.3695C19.6667 12.1737 19.9284 12.0417 20.2109 11.989C20.5092 11.9357 20.8161 11.9586 21.1032 12.0555C21.3903 12.1525 21.6482 12.3203 21.8532 12.5435L33.9312 25.27C34.1431 25.4846 34.2964 25.7499 34.3765 26.0406C34.4566 26.3313 34.4608 26.6377 34.3888 26.9305C34.3156 27.208 34.1651 27.4589 33.9548 27.6542C33.7445 27.8495 33.4831 27.981 33.201 28.0335L16.9262 31.2181Z" fill="white"/>
<path d="M20.998 16.8318L22.0312 16.6288C22.3649 16.575 22.7066 16.6464 22.9907 16.8293C23.2749 17.0122 23.4814 17.2937 23.5705 17.6197L23.9402 19.0044C23.9542 19.0553 23.9653 19.1069 23.9735 19.159L24.6311 23.5193C24.6823 23.8129 24.6156 24.1148 24.4453 24.3594C24.2751 24.604 24.0151 24.7714 23.722 24.8253C23.4147 24.8763 23.0992 24.8206 22.8279 24.6673C22.5567 24.514 22.3461 24.2725 22.2312 23.9829L20.5525 19.8377C20.5322 19.7894 20.515 19.7398 20.501 19.6892L20.1192 18.3015C20.0696 18.1472 20.0534 17.9841 20.0718 17.8231C20.0902 17.6621 20.1428 17.5068 20.2259 17.3677C20.3091 17.2286 20.421 17.1089 20.5541 17.0165C20.6873 16.9241 20.8386 16.8611 20.998 16.8318ZM23.922 26.007L24.2038 25.9525C24.5027 25.9008 24.81 25.9629 25.0653 26.1267C25.3205 26.2905 25.5051 26.5441 25.5825 26.8373C25.6252 26.9739 25.6387 27.1179 25.622 27.26C25.6053 27.4021 25.5588 27.5391 25.4856 27.662C25.4125 27.7849 25.3142 27.8911 25.1972 27.9735C25.0802 28.0559 24.9472 28.1127 24.8068 28.1403L24.525 28.1948C24.2266 28.2467 23.9196 28.1849 23.6644 28.0217C23.4092 27.8585 23.2244 27.6057 23.1463 27.313C23.1036 27.1763 23.0902 27.0321 23.1068 26.8898C23.1235 26.7475 23.1699 26.6103 23.2431 26.4871C23.3162 26.364 23.4145 26.2576 23.5315 26.1749C23.6484 26.0921 23.7815 26.035 23.922 26.007Z" fill="#EE3A31"/>
</svg>
