<svg xmlns="http://www.w3.org/2000/svg">
  <symbol id="icon" width="24" height="24" viewBox="0 0 24 24" fill="none">
    <path d="M12 16.5C9.525 16.5 7.5 14.475 7.5 12C7.5 9.525 9.525 7.5 12 7.5C14.475 7.5 16.5 9.525 16.5 12C16.5 14.475 14.475 16.5 12 16.5ZM12 9C10.35 9 9 10.35 9 12C9 13.65 10.35 15 12 15C13.65 15 15 13.65 15 12C15 10.35 13.65 9 12 9Z" fill="currentColor"/>
    <path d="M12 19.5C7.21496 19.5 3.01496 16.59 1.54496 12.24C1.48501 12.0856 1.48501 11.9144 1.54496 11.76C3.01496 7.425 7.22996 4.5 12 4.5C16.77 4.5 20.985 7.41 22.455 11.76C22.515 11.91 22.515 12.09 22.455 12.24C20.985 16.575 16.77 19.5 12 19.5ZM3.04496 12C4.37996 15.6 7.94996 18 12 18C16.05 18 19.605 15.6 20.955 12C19.62 8.4 16.05 6 12 6C7.94996 6 4.39496 8.4 3.04496 12Z" fill="currentColor"/>
  </symbol>
</svg>