<svg xmlns="http://www.w3.org/2000/svg">
  <symbol id="icon" width="16" height="16" viewBox="0 0 16 16" fill="none">
    <path d="M8.00065 1.83301C6.68211 1.83301 5.39318 2.224 4.29685 2.95654C3.20052 3.68909 2.34604 4.73028 1.84146 5.94845C1.33687 7.16663 1.20485 8.50707 1.46209 9.80028C1.71932 11.0935 2.35426 12.2814 3.28661 13.2137C4.21896 14.1461 5.40685 14.781 6.70005 15.0382C7.99326 15.2955 9.3337 15.1635 10.5519 14.6589C11.7701 14.1543 12.8112 13.2998 13.5438 12.2035C14.2763 11.1071 14.6673 9.81822 14.6673 8.49967C14.6673 7.6242 14.4949 6.75729 14.1599 5.94845C13.8248 5.13961 13.3338 4.40469 12.7147 3.78563C12.0956 3.16657 11.3607 2.67551 10.5519 2.34048C9.74304 2.00545 8.87613 1.83301 8.00065 1.83301ZM8.66732 11.1663C8.66732 11.3432 8.59708 11.5127 8.47206 11.6377C8.34703 11.7628 8.17747 11.833 8.00065 11.833C7.82384 11.833 7.65427 11.7628 7.52925 11.6377C7.40423 11.5127 7.33399 11.3432 7.33399 11.1663V7.83301C7.33399 7.6562 7.40423 7.48663 7.52925 7.3616C7.65427 7.23658 7.82384 7.16634 8.00065 7.16634C8.17747 7.16634 8.34703 7.23658 8.47206 7.3616C8.59708 7.48663 8.66732 7.6562 8.66732 7.83301V11.1663ZM8.00065 6.49967C7.8688 6.49967 7.73991 6.46057 7.63027 6.38732C7.52064 6.31407 7.43519 6.20995 7.38473 6.08813C7.33428 5.96631 7.32107 5.83227 7.3468 5.70295C7.37252 5.57363 7.43602 5.45484 7.52925 5.3616C7.62249 5.26837 7.74127 5.20487 7.87059 5.17915C7.99992 5.15343 8.13396 5.16663 8.25578 5.21709C8.37759 5.26755 8.48171 5.35299 8.55497 5.46263C8.62822 5.57226 8.66732 5.70115 8.66732 5.83301C8.66732 6.00982 8.59708 6.17939 8.47206 6.30441C8.34703 6.42944 8.17747 6.49967 8.00065 6.49967Z" fill="currentColor"/>
  </symbol>
</svg>