<svg xmlns="http://www.w3.org/2000/svg"> 
  <symbol id="icon" viewBox="0 0 16 16" fill="none">
    <path d="M7.99935 11.3327C7.64573 11.3327 7.30659 11.1922 7.05654 10.9422C6.80649 10.6921 6.66602 10.353 6.66602 9.99935C6.66602 9.25935 7.25935 8.66602 7.99935 8.66602C8.35297 8.66602 8.69211 8.80649 8.94216 9.05654C9.19221 9.30659 9.33268 9.64573 9.33268 9.99935C9.33268 10.353 9.19221 10.6921 8.94216 10.9422C8.69211 11.1922 8.35297 11.3327 7.99935 11.3327ZM11.9993 13.3327V6.66602H3.99935V13.3327H11.9993ZM11.9993 5.33268C12.353 5.33268 12.6921 5.47316 12.9422 5.72321C13.1922 5.97326 13.3327 6.31239 13.3327 6.66602V13.3327C13.3327 13.6863 13.1922 14.0254 12.9422 14.2755C12.6921 14.5255 12.353 14.666 11.9993 14.666H3.99935C3.64573 14.666 3.30659 14.5255 3.05654 14.2755C2.80649 14.0254 2.66602 13.6863 2.66602 13.3327V6.66602C2.66602 5.92602 3.25935 5.33268 3.99935 5.33268H4.66602V3.99935C4.66602 3.11529 5.0172 2.26745 5.64233 1.64233C6.26745 1.01721 7.11529 0.666016 7.99935 0.666016C8.43709 0.666016 8.87054 0.752235 9.27496 0.919751C9.67938 1.08727 10.0468 1.3328 10.3564 1.64233C10.6659 1.95185 10.9114 2.31932 11.0789 2.72374C11.2465 3.12816 11.3327 3.56161 11.3327 3.99935V5.33268H11.9993ZM7.99935 1.99935C7.46892 1.99935 6.96021 2.21006 6.58513 2.58514C6.21006 2.96021 5.99935 3.46892 5.99935 3.99935V5.33268H9.99935V3.99935C9.99935 3.46892 9.78864 2.96021 9.41356 2.58514C9.03849 2.21006 8.52978 1.99935 7.99935 1.99935Z" fill="currentColor"/>
  </symbol>
</svg>