<svg xmlns="http://www.w3.org/2000/svg">
  <symbol id="icon" width="20" height="20" viewBox="0 0 20 20" fill="none">
    <path fill-rule="evenodd" clip-rule="evenodd" d="M8.49674 1.05628C10.0443 0.707944 11.1668 2.03796 11.1668 3.35298V15.0198C11.1668 16.3348 10.0443 17.6648 8.49674 17.3165C4.77837 16.4798 2 13.1581 2 9.18638C2 5.21466 4.77837 1.89296 8.49674 1.05628ZM13.0776 6.09717C13.2339 5.94095 13.4458 5.85318 13.6668 5.85318C13.8878 5.85318 14.0997 5.94095 14.256 6.09717L16.756 8.5972C16.9122 8.75348 17 8.9654 17 9.18638C17 9.40735 16.9122 9.61928 16.756 9.77555L14.256 12.2756C14.0988 12.4274 13.8883 12.5114 13.6698 12.5095C13.4513 12.5076 13.2423 12.4199 13.0878 12.2654C12.9333 12.1109 12.8456 11.9019 12.8437 11.6834C12.8418 11.4649 12.9258 11.2544 13.0776 11.0972L14.1551 10.0197H7.00006C6.77904 10.0197 6.56708 9.93192 6.4108 9.77564C6.25451 9.61936 6.16672 9.40739 6.16672 9.18638C6.16672 8.96536 6.25451 8.7534 6.4108 8.59712C6.56708 8.44083 6.77904 8.35303 7.00006 8.35303H14.1551L13.0776 7.27552C12.9214 7.11925 12.8336 6.90732 12.8336 6.68635C12.8336 6.46537 12.9214 6.25345 13.0776 6.09717Z" fill="currentColor"/>
  </symbol>
</svg>