<svg xmlns="http://www.w3.org/2000/svg">
  <symbol id="icon" width="20" height="20" viewBox="0 0 20 20" fill="none">  
    <path d="M4.375 6.2181V17.5006H15.625V6.2181L10.7913 2.2631C10.568 2.08053 10.2884 1.98079 10 1.98079C9.71158 1.98079 9.43203 2.08053 9.20875 2.2631L4.375 6.2181ZM11.5825 1.2956L16.645 5.4381C16.7168 5.49665 16.7747 5.57042 16.8145 5.65409C16.8542 5.73775 16.8749 5.82921 16.875 5.92185V18.1256C16.875 18.2914 16.8092 18.4503 16.6919 18.5675C16.5747 18.6848 16.4158 18.7506 16.25 18.7506H3.75C3.58424 18.7506 3.42527 18.6848 3.30806 18.5675C3.19085 18.4503 3.125 18.2914 3.125 18.1256V5.92185C3.12494 5.82931 3.14543 5.73791 3.18499 5.65426C3.22454 5.5706 3.28219 5.49677 3.35375 5.4381L8.41625 1.2956C8.86291 0.93014 9.42226 0.730469 9.99937 0.730469C10.5765 0.730469 11.1358 0.93014 11.5825 1.2956Z" fill="currentColor"/>
    <path d="M10 8.75C10.3315 8.75 10.6495 8.6183 10.8839 8.38388C11.1183 8.14946 11.25 7.83152 11.25 7.5C11.25 7.16848 11.1183 6.85054 10.8839 6.61612C10.6495 6.3817 10.3315 6.25 10 6.25C9.66848 6.25 9.35054 6.3817 9.11612 6.61612C8.8817 6.85054 8.75 7.16848 8.75 7.5C8.75 7.83152 8.8817 8.14946 9.11612 8.38388C9.35054 8.6183 9.66848 8.75 10 8.75ZM10 10C9.33696 10 8.70107 9.73661 8.23223 9.26777C7.76339 8.79893 7.5 8.16304 7.5 7.5C7.5 6.83696 7.76339 6.20107 8.23223 5.73223C8.70107 5.26339 9.33696 5 10 5C10.663 5 11.2989 5.26339 11.7678 5.73223C12.2366 6.20107 12.5 6.83696 12.5 7.5C12.5 8.16304 12.2366 8.79893 11.7678 9.26777C11.2989 9.73661 10.663 10 10 10Z" fill="currentColor"/>
  </symbol>
</svg>