<svg width="14" height="14" viewBox="0 0 14 14" fill="none" xmlns="http://www.w3.org/2000/svg">
<path d="M7 9.625C7.69619 9.625 8.36387 9.34844 8.85616 8.85616C9.34844 8.36387 9.625 7.69619 9.625 7C9.625 6.30381 9.34844 5.63613 8.85616 5.14384C8.36387 4.65156 7.69619 4.375 7 4.375C6.30381 4.375 5.63613 4.65156 5.14384 5.14384C4.65156 5.63613 4.375 6.30381 4.375 7C4.375 7.69619 4.65156 8.36387 5.14384 8.85616C5.63613 9.34844 6.30381 9.625 7 9.625ZM7 1.75C6.31056 1.75 5.62787 1.8858 4.99091 2.14963C4.35395 2.41347 3.7752 2.80018 3.28769 3.28769C2.80018 3.7752 2.41347 4.35395 2.14963 4.99091C1.8858 5.62787 1.75 6.31056 1.75 7C1.75 7.68944 1.8858 8.37213 2.14963 9.00909C2.41347 9.64605 2.80018 10.2248 3.28769 10.7123C3.7752 11.1998 4.35395 11.5865 4.99091 11.8504C5.62787 12.1142 6.31056 12.25 7 12.25C8.39239 12.25 9.72774 11.6969 10.7123 10.7123C11.6969 9.72774 12.25 8.39239 12.25 7C12.25 5.60761 11.6969 4.27226 10.7123 3.28769C9.72774 2.30312 8.39239 1.75 7 1.75ZM2.625 7C2.625 5.83968 3.08594 4.72688 3.90641 3.90641C4.72688 3.08594 5.83968 2.625 7 2.625C8.16032 2.625 9.27312 3.08594 10.0936 3.90641C10.9141 4.72688 11.375 5.83968 11.375 7C11.375 8.16032 10.9141 9.27312 10.0936 10.0936C9.27312 10.9141 8.16032 11.375 7 11.375C5.83968 11.375 4.72688 10.9141 3.90641 10.0936C3.08594 9.27312 2.625 8.16032 2.625 7Z" fill="#ED906C"/>
</svg>
