<svg xmlns="http://www.w3.org/2000/svg">
  <symbol id="icon" width="20" height="20" viewBox="0 0 20 20" fill="none">  
    <path fill-rule="evenodd" clip-rule="evenodd" d="M10 6.875C9.1712 6.875 8.37634 7.20424 7.79029 7.79029C7.20424 8.37634 6.875 9.1712 6.875 10C6.875 10.8288 7.20424 11.6237 7.79029 12.2097C8.37634 12.7958 9.1712 13.125 10 13.125C10.8288 13.125 11.6237 12.7958 12.2097 12.2097C12.7958 11.6237 13.125 10.8288 13.125 10C13.125 9.1712 12.7958 8.37634 12.2097 7.79029C11.6237 7.20424 10.8288 6.875 10 6.875ZM8.125 10C8.125 9.50272 8.32254 9.02581 8.67417 8.67417C9.02581 8.32254 9.50272 8.125 10 8.125C10.4973 8.125 10.9742 8.32254 11.3258 8.67417C11.6775 9.02581 11.875 9.50272 11.875 10C11.875 10.4973 11.6775 10.9742 11.3258 11.3258C10.9742 11.6775 10.4973 11.875 10 11.875C9.50272 11.875 9.02581 11.6775 8.67417 11.3258C8.32254 10.9742 8.125 10.4973 8.125 10Z" fill="currentColor"/>
    <path fill-rule="evenodd" clip-rule="evenodd" d="M9.97882 1.04102C9.60798 1.04102 9.29882 1.04102 9.04548 1.05768C8.78654 1.06847 8.53115 1.12196 8.28965 1.21602C8.01152 1.33109 7.75879 1.49983 7.54589 1.71259C7.33298 1.92535 7.16408 2.17797 7.04882 2.45602C6.92798 2.74768 6.89548 3.05602 6.88215 3.39102C6.88082 3.51353 6.84838 3.6337 6.78789 3.74025C6.7274 3.84681 6.64084 3.93625 6.53632 4.00018C6.42872 4.05893 6.30795 4.08938 6.18536 4.08865C6.06277 4.08792 5.94237 4.05604 5.83548 3.99602C5.53882 3.83935 5.25548 3.71352 4.94215 3.67185C4.64377 3.6326 4.34058 3.65251 4.0499 3.73043C3.75921 3.80836 3.48672 3.94278 3.24798 4.12602C3.04613 4.28842 2.87241 4.48297 2.73382 4.70185C2.59215 4.91352 2.43715 5.18102 2.25215 5.50185L2.23132 5.53852C2.04548 5.85935 1.89132 6.12685 1.77965 6.35518C1.66298 6.59352 1.57132 6.82852 1.53798 7.08852C1.45848 7.69101 1.62155 8.30041 1.99132 8.78268C2.18382 9.03352 2.43465 9.21602 2.71798 9.39435C2.82362 9.4568 2.91162 9.5451 2.97373 9.65094C3.03583 9.75677 3.06999 9.87667 3.07298 9.99935C3.06999 10.122 3.03583 10.2419 2.97373 10.3478C2.91162 10.4536 2.82362 10.5419 2.71798 10.6043C2.43465 10.7827 2.18465 10.9652 1.99132 11.216C1.80808 11.4548 1.67366 11.7272 1.59574 12.0179C1.51781 12.3086 1.4979 12.6118 1.53715 12.9102C1.57132 13.1702 1.66215 13.4052 1.77882 13.6435C1.89132 13.8718 2.04548 14.1393 2.23132 14.4602L2.25215 14.4968C2.43715 14.8177 2.59215 15.0852 2.73382 15.2968C2.88132 15.516 3.03965 15.7135 3.24798 15.8718C3.48666 16.0552 3.75912 16.1898 4.04981 16.2679C4.34049 16.3459 4.64372 16.366 4.94215 16.3268C5.25548 16.2852 5.53882 16.1602 5.83548 16.0027C5.94225 15.9427 6.0625 15.9109 6.18494 15.9102C6.30739 15.9094 6.42801 15.9398 6.53548 15.9985C6.64058 16.062 6.72769 16.1512 6.78852 16.2579C6.84935 16.3645 6.88187 16.4849 6.88298 16.6077C6.89548 16.9427 6.92798 17.251 7.04965 17.5427C7.16472 17.8208 7.33346 18.0735 7.54622 18.2864C7.75898 18.4993 8.0116 18.6683 8.28965 18.7835C8.53132 18.8835 8.78132 18.9227 9.04548 18.9402C9.29882 18.9577 9.60798 18.9577 9.97882 18.9577H10.0205C10.3913 18.9577 10.7005 18.9577 10.9538 18.941C11.2188 18.9227 11.468 18.8835 11.7096 18.7827C11.9878 18.6676 12.2405 18.4989 12.4534 18.2861C12.6663 18.0733 12.8352 17.8207 12.9505 17.5427C13.0713 17.251 13.1038 16.9427 13.1171 16.6077C13.1183 16.485 13.1507 16.3647 13.2112 16.258C13.2717 16.1513 13.3583 16.0617 13.463 15.9977C13.5707 15.9391 13.6915 15.9088 13.814 15.9096C13.9366 15.9105 14.057 15.9425 14.1638 16.0027C14.4605 16.1593 14.7438 16.2852 15.0571 16.326C15.6596 16.4055 16.269 16.2424 16.7513 15.8727C16.9596 15.7127 17.118 15.516 17.2655 15.2968C17.4071 15.0852 17.5621 14.8177 17.7471 14.4968L17.768 14.4602C17.9538 14.1393 18.108 13.8718 18.2196 13.6435C18.3363 13.4052 18.428 13.1693 18.4613 12.9102C18.5408 12.3077 18.3777 11.6983 18.008 11.216C17.8155 10.9652 17.5646 10.7827 17.2813 10.6043C17.1757 10.5419 17.0877 10.4536 17.0256 10.3478C16.9635 10.2419 16.9293 10.122 16.9263 9.99935C16.9263 9.76768 17.053 9.53768 17.2813 9.39435C17.5646 9.21602 17.8146 9.03352 18.008 8.78268C18.1912 8.54395 18.3256 8.27145 18.4036 7.98077C18.4815 7.69008 18.5014 7.3869 18.4621 7.08852C18.4225 6.83244 18.3408 6.58467 18.2205 6.35518C18.0782 6.0783 17.9273 5.80595 17.768 5.53852L17.7471 5.50185C17.5949 5.23026 17.4343 4.96346 17.2655 4.70185C17.1269 4.4832 16.9532 4.28892 16.7513 4.12685C16.5126 3.94347 16.2402 3.8089 15.9495 3.73083C15.6588 3.65276 15.3556 3.63272 15.0571 3.67185C14.7438 3.71352 14.4605 3.83852 14.1638 3.99602C14.057 4.05589 13.9368 4.08769 13.8144 4.08842C13.6919 4.08915 13.5713 4.05879 13.4638 4.00018C13.359 3.93645 13.2721 3.8471 13.2113 3.74053C13.1505 3.63397 13.1178 3.51369 13.1163 3.39102C13.1038 3.05602 13.0713 2.74768 12.9496 2.45602C12.8346 2.17789 12.6658 1.92516 12.4531 1.71225C12.2403 1.49935 11.9877 1.33044 11.7096 1.21518C11.468 1.11518 11.218 1.07602 10.9538 1.05852C10.7005 1.04102 10.3913 1.04102 10.0205 1.04102H9.97882ZM8.76798 2.37018C8.83215 2.34352 8.92965 2.31935 9.13048 2.30518C9.33632 2.29102 9.60298 2.29102 9.99965 2.29102C10.3963 2.29102 10.663 2.29102 10.8688 2.30518C11.0696 2.31935 11.1671 2.34352 11.2313 2.37018C11.4871 2.47602 11.6896 2.67852 11.7955 2.93435C11.8288 3.01435 11.8563 3.14018 11.8671 3.43768C11.8921 4.09768 12.233 4.73352 12.838 5.08268C13.443 5.43268 14.1638 5.40935 14.748 5.10102C15.0113 4.96185 15.1338 4.92268 15.2205 4.91185C15.4943 4.87567 15.7713 4.94971 15.9905 5.11768C16.0455 5.16018 16.1155 5.23268 16.228 5.39935C16.3438 5.57102 16.4771 5.80185 16.6755 6.14518C16.8738 6.48852 17.0063 6.72018 17.0971 6.90518C17.1863 7.08602 17.2138 7.18268 17.2221 7.25185C17.2583 7.52565 17.1843 7.80262 17.0163 8.02185C16.963 8.09102 16.868 8.17768 16.6163 8.33602C16.0563 8.68768 15.6763 9.30102 15.6763 9.99935C15.6763 10.6977 16.0563 11.311 16.6163 11.6627C16.868 11.821 16.963 11.9077 17.0163 11.9768C17.1846 12.196 17.258 12.4727 17.2221 12.7468C17.2138 12.816 17.1855 12.9135 17.0971 13.0935C17.0063 13.2793 16.8738 13.5102 16.6755 13.8535C16.4771 14.1968 16.343 14.4277 16.228 14.5993C16.1155 14.766 16.0455 14.8385 15.9905 14.881C15.7713 15.049 15.4943 15.123 15.2205 15.0868C15.1338 15.076 15.0121 15.0368 14.748 14.8977C14.1646 14.5893 13.443 14.566 12.838 14.9152C12.233 15.2652 11.8921 15.901 11.8671 16.561C11.8563 16.8585 11.8288 16.9843 11.7955 17.0643C11.7431 17.1908 11.6664 17.3058 11.5696 17.4026C11.4727 17.4994 11.3578 17.5762 11.2313 17.6285C11.1671 17.6552 11.0696 17.6793 10.8688 17.6935C10.663 17.7077 10.3963 17.7077 9.99965 17.7077C9.60298 17.7077 9.33632 17.7077 9.13048 17.6935C8.92965 17.6793 8.83215 17.6552 8.76798 17.6285C8.64149 17.5762 8.52655 17.4994 8.42974 17.4026C8.33294 17.3058 8.25617 17.1908 8.20382 17.0643C8.17048 16.9843 8.14298 16.8585 8.13215 16.561C8.10715 15.901 7.76632 15.2652 7.16132 14.916C6.55632 14.566 5.83548 14.5893 5.25132 14.8977C4.98798 15.0368 4.86548 15.076 4.77882 15.0868C4.50501 15.123 4.22805 15.049 4.00882 14.881C3.95382 14.8385 3.88382 14.766 3.77132 14.5993C3.61458 14.3554 3.46534 14.1066 3.32382 13.8535C3.12548 13.5102 2.99298 13.2785 2.90215 13.0935C2.81298 12.9127 2.78548 12.816 2.77715 12.7468C2.74097 12.473 2.81501 12.1961 2.98298 11.9768C3.03632 11.9077 3.13132 11.821 3.38298 11.6627C3.94298 11.311 4.32298 10.6977 4.32298 9.99935C4.32298 9.30102 3.94298 8.68768 3.38298 8.33602C3.13132 8.17768 3.03632 8.09102 2.98298 8.02185C2.81501 7.80262 2.74097 7.52565 2.77715 7.25185C2.78548 7.18268 2.81382 7.08518 2.90215 6.90518C2.99298 6.71935 3.12548 6.48852 3.32382 6.14518C3.52215 5.80185 3.65632 5.57102 3.77132 5.39935C3.88382 5.23268 3.95382 5.16018 4.00882 5.11768C4.22805 4.94971 4.50501 4.87567 4.77882 4.91185C4.86548 4.92268 4.98715 4.96185 5.25132 5.10102C5.83465 5.40935 6.55632 5.43268 7.16132 5.08268C7.76632 4.73352 8.10715 4.09768 8.13215 3.43768C8.14298 3.14018 8.17048 3.01435 8.20382 2.93435C8.30965 2.67852 8.51215 2.47602 8.76798 2.37018Z" fill="currentColor"/>
  </symbol>
</svg>