<svg width="20" height="20" viewBox="0 0 20 20" fill="none" xmlns="http://www.w3.org/2000/svg">
  <path d="M3.34102 5.00911H16.6743V6.67578H3.34102V5.00911ZM5.00768 1.67578H15.0077V3.34245H5.00768V1.67578ZM16.666 8.33412H3.33268C2.89065 8.33412 2.46673 8.50971 2.15417 8.82227C1.84161 9.13483 1.66602 9.55875 1.66602 10.0008V16.6674C1.66602 17.1095 1.84161 17.5334 2.15417 17.846C2.46673 18.1585 2.89065 18.3341 3.33268 18.3341H16.666C17.108 18.3341 17.532 18.1585 17.8445 17.846C18.1571 17.5334 18.3327 17.1095 18.3327 16.6674V10.0008C18.3327 9.55875 18.1571 9.13483 17.8445 8.82227C17.532 8.50971 17.108 8.33412 16.666 8.33412ZM8.58268 16.6674L5.83268 13.9674L6.99935 12.8008L8.58268 14.3841L12.9993 9.96745L14.166 11.1341L8.58268 16.6674Z" fill="#EE3331"/>
</svg>
