<svg xmlns="http://www.w3.org/2000/svg">
  <symbol id="icon" width="24" height="24" viewBox="0 0 24 24" fill="none">
    <path d="M21.1006 24H2.89932C0.698427 24 -0.697648 21.4701 0.361175 19.4007L9.4618 1.61164C10.5611 -0.537214 13.4391 -0.537214 14.5383 1.61164L23.639 19.4007C24.6975 21.4701 23.3015 24 21.1006 24Z" fill="currentColor"/>
    <path d="M23.6387 19.3995L17.4953 7.39062C15.4817 11.6505 11.0504 16.7075 1.32611 17.5132L0.361175 19.3995C-0.697648 21.4689 0.698427 23.9988 2.89932 23.9988H21.1003C23.3015 23.9988 24.6975 21.4689 23.6387 19.3995Z" fill="currentColor"/>
    <path d="M13.7422 16.3166H10.2586L9.48047 5.75391H14.5203L13.7422 16.3166Z" fill="white"/>
    <path d="M13.7432 18.3232H10.2598V21.191H13.7432V18.3232Z" fill="white"/>
  </symbol>
</svg>