<svg xmlns="http://www.w3.org/2000/svg">
  <symbol id="icon" viewBox="0 0 22 22" fill="none">
    <path d="M11.0007 1.8335C16.0634 1.8335 20.1673 5.93741 20.1673 11.0002C20.1673 16.0629 16.0634 20.1668 11.0007 20.1668C9.44045 20.1691 7.9057 19.7715 6.54291 19.0118L6.26333 18.8487L3.48399 19.6663C3.33274 19.7109 3.17262 19.7161 3.0188 19.6814C2.86498 19.6468 2.72255 19.5734 2.60503 19.4683C2.48751 19.3632 2.39879 19.2298 2.34727 19.0807C2.29576 18.9317 2.28315 18.772 2.31066 18.6167L2.33449 18.5168L3.15216 15.7375C2.2877 14.3087 1.83177 12.6701 1.83399 11.0002C1.83399 5.93741 5.93791 1.8335 11.0007 1.8335ZM11.0007 3.66683C9.68765 3.66659 8.39866 4.01888 7.26829 4.68691C6.13793 5.35494 5.20765 6.3142 4.57461 7.46453C3.94156 8.61485 3.62898 9.91404 3.66949 11.2264C3.71 12.5388 4.10212 13.8162 4.80491 14.9253C4.98641 15.2113 5.06433 15.5633 5.00291 15.9126L4.96716 16.062L4.56291 17.4379L5.93883 17.0337C6.33574 16.9163 6.74824 16.9878 7.07549 17.1959C8.03646 17.8044 9.12579 18.181 10.2574 18.2959C11.389 18.4109 12.5318 18.2611 13.5955 17.8583C14.6592 17.4555 15.6146 16.8108 16.3862 15.9752C17.1579 15.1395 17.7245 14.1359 18.0415 13.0435C18.3584 11.9511 18.4169 10.8 18.2123 9.68118C18.0077 8.56232 17.5457 7.50638 16.8627 6.59684C16.1798 5.6873 15.2946 4.94909 14.2772 4.44057C13.2598 3.93205 12.1381 3.66716 11.0007 3.66683ZM8.34416 6.5855C8.44565 6.54155 8.55683 6.52478 8.66676 6.53683C8.7767 6.54888 8.88161 6.58935 8.97116 6.65425C9.43316 6.99158 9.79983 7.44441 10.1152 7.88625L10.4149 8.32075L10.5552 8.527C10.6361 8.64532 10.6758 8.78699 10.6682 8.93014C10.6606 9.07328 10.606 9.20994 10.513 9.319L10.4442 9.38866L9.59724 10.0175C9.55648 10.047 9.52779 10.0903 9.5165 10.1393C9.5052 10.1884 9.51207 10.2399 9.53583 10.2842C9.72833 10.6326 10.0684 11.1523 10.4589 11.5428C10.8503 11.9333 11.3939 12.2963 11.7661 12.5099C11.8467 12.5557 11.9439 12.5411 12.0099 12.4815L12.0447 12.4402L12.5957 11.6015C12.6968 11.4668 12.8462 11.3764 13.0124 11.3494C13.1787 11.3224 13.349 11.3609 13.4876 11.4567L13.9853 11.8041C14.4803 12.157 14.9561 12.5365 15.3328 13.0177C15.4029 13.108 15.4474 13.2154 15.4618 13.3288C15.4761 13.4422 15.4598 13.5573 15.4144 13.6622C15.0514 14.5092 14.132 15.2306 13.1768 15.1957L13.0311 15.1866L12.856 15.1701C12.8229 15.1662 12.7899 15.1619 12.757 15.1572L12.5388 15.1206C11.6918 14.9611 10.3342 14.4807 8.92716 13.0746C7.52099 11.6675 7.04066 10.3099 6.88116 9.46291L6.84449 9.24475L6.82158 9.05408L6.80966 8.89366C6.80821 8.87076 6.80698 8.84784 6.80599 8.82491C6.77116 7.86791 7.49624 6.9485 8.34416 6.5855Z" fill="currentColor"/>
  </symbol>
</svg>